<?xml version="1.0" encoding="UTF-8"?>
<!-- Generator: Adobe Illustrator 19.1.0, SVG Export Plug-In . SVG Version: 6.00 Build 0)  -->
<!DOCTYPE svg PUBLIC "-//W3C//DTD SVG 1.1//EN" "http://www.w3.org/Graphics/SVG/1.1/DTD/svg11.dtd">
<svg xmlns="http://www.w3.org/2000/svg" xmlns:xlink="http://www.w3.org/1999/xlink" xmlns:dc="http://purl.org/dc/elements/1.1/" xmlns:cc="http://creativecommons.org/ns#" xmlns:rdf="http://www.w3.org/1999/02/22-rdf-syntax-ns#" version="1.1" id="DESIGNS" x="0px" y="0px" width="64px" height="64px" viewBox="0 0 64 64" style="enable-background:new 0 0 64 64;" xml:space="preserve">
<title property="dc:title">to cook</title><desc property="dc:description">An icon for "cook" from the Fandom series on to [icon]. Downloaded from http://www.toicon.com/icons/fandom_cook by 187.123.37.70 on 2016-12-28. Licensed CC-BY, see http://toicon.com/license/ for details.</desc>
<g>
	<g>
		<path class="fandom_zes" d="M32,7C18.193,7,7,18.193,7,32h50C57,18.193,45.807,7,32,7z" style="fill: #00B3AA;"/>
		<path class="fandom_vijf" d="M32,57c13.807,0,25-11.193,25-25H7C7,45.807,18.193,57,32,57z" style="fill: #018273;"/>
	</g>
	<g>
		<path class="fandom_vier" d="M54.137,47.303c-0.788-2.771-0.842-5.919-2.156-8.396c-0.977-1.841-3.934-2.871-6.663-3.552    c-0.65,0.445-2.94,1.957-5.17,2.784c-0.838,0.311-1.484-0.754-0.831-1.365l2.148-2.274c1.868-4.733,2.2-10.213,1.158-15.254    l-0.15-0.003c-0.61-0.011-1.421-1.537-2.017-3.794c-5.631-1.348-10.897-1.462-16.894-0.071c-0.597,2.296-1.419,3.854-2.035,3.865    l-0.433,0.008c-1.041,5.039-0.709,10.518,1.159,15.249L18.4,35.354c-2.729,0.682-5.686,1.711-6.663,3.552    c-1.314,2.477-1.368,5.626-2.156,8.396c-0.282,0.992-0.083,2.06,0.588,2.843c9.046,10.562,24.975,12.886,36.64,5.746l1.276-7.559    c0.19-0.857,1.417-0.845,1.59,0.016l0.726,4.938c1.129-0.963,2.182-2.013,3.147-3.14C54.219,49.362,54.419,48.295,54.137,47.303z     M31.859,33.544c-4.386-0.166-8.734-8.028-6.303-14.694c0.187-0.512,0.676-0.85,1.221-0.85h10.164c0.545,0,1.034,0.338,1.221,0.85    C40.593,25.517,36.245,33.378,31.859,33.544z" style="fill: #FFC865;"/>
		<path class="fandom_drie" d="M45.312,35.352c0,0-2.53,1.808-5.165,2.785c-0.838,0.311-1.484-0.754-0.831-1.365l2.148-2.274    L45.312,35.352z M48.085,48.333l-1.276,7.559c1.266-0.775,2.467-1.647,3.591-2.606l-0.726-4.938    C49.502,47.488,48.276,47.475,48.085,48.333z M28.975,39.125c0.568-0.04,1.089-0.879,0.571-1.328    c-6.54-5.663-7.433-13.646-5.697-22.485l-0.287,0.066c-0.597,2.295-1.419,3.853-2.035,3.864l-0.433,0.008    c-1.041,5.039-0.709,10.518,1.159,15.249L18.4,35.354c-2.729,0.682-5.686,1.711-6.663,3.552c-1.314,2.477-1.368,5.626-2.156,8.396    c-0.282,0.992-0.083,2.06,0.588,2.843c3.887,4.538,10.209,8.648,18.223,9.651c0.205,0.022,0.407,0.044,0.608,0.065V42.696    c0.006-0.634-3.277-3.77-3.049-4.168C26.388,37.762,28.609,39.15,28.975,39.125z" style="fill: #BE9148;"/>
		<path class="fandom_vijftien" d="M40.456,15.448c-5.559-1.331-11.19-1.471-16.894-0.071c0.459-1.739,0.78-3.897,0.694-5.637    c1.748-0.33,3.512-0.547,5.28-0.652l1.408-2.438c0.469-0.813,1.642-0.813,2.111,0l1.408,2.438c1.769,0.105,3.533,0.322,5.28,0.652    C39.661,11.397,39.968,13.599,40.456,15.448z M32,3.304c-4.787-0.06-9.579,1.491-10.672,4.538    c0.073-0.001,2.184-0.045,2.255-0.029C24.749,6.204,28.375,5.337,32,5.373c3.625-0.035,7.251,0.832,8.417,2.441    c0.07-0.016,2.182,0.028,2.255,0.029C41.579,4.795,36.787,3.244,32,3.304z" style="fill: #3A3A3A;"/>
		<path class="fandom_twee" d="M43.648,7.939c0.7-0.508,1.81,1.605,2.481,4.727c0.67,3.115,0.647,6.052-0.053,6.56    c-0.7,0.508-1.814-1.603-2.484-4.717C42.921,11.388,42.948,8.448,43.648,7.939z M20.352,7.939c-0.7-0.508-1.81,1.605-2.481,4.727    c-0.67,3.115-0.647,6.052,0.053,6.56c0.7,0.508,1.814-1.603,2.484-4.717C21.079,11.388,21.052,8.448,20.352,7.939z" style="fill: #BE5652;"/>
		<path class="fandom_een" d="M45.848,19.301l-3.375-0.059c-0.696-0.012-1.654-1.999-2.255-4.793    c-0.658-3.058-0.717-6.663,0.283-6.645l3.375,0.059c-1-0.018-0.941,3.587-0.283,6.645C44.193,17.303,45.152,19.289,45.848,19.301z     M23.499,7.805l-3.375,0.059c1-0.018,0.941,3.587,0.283,6.645c-0.601,2.794-1.559,4.78-2.255,4.793l3.375-0.059    c0.696-0.012,1.654-1.999,2.255-4.793C24.44,11.392,24.499,7.787,23.499,7.805z" style="fill: #FF786E;"/>
		<path class="fandom_veertien" d="M32.856,59.989V45.593c0-1.276-1.856-1.249-1.856,0v14.396    C31.687,60.015,32.952,59.986,32.856,59.989z" style="fill: #EFEAE0;"/>
	</g>
</g>
<metadata><work rdf:about=""><format>image/svg+xml</format><type rdf:resource="http://purl.org/dc/dcmitype/StillImage"/><license rdf:resource="http://creativecommons.org/licenses/by/4.0/"/><attributionname>Carol Liao</attributionname><attributionurl>http://www.toicon.com/icons/fandom_cook</attributionurl></work></metadata></svg>
