<?xml version="1.0" encoding="UTF-8"?>
<!-- Generator: Adobe Illustrator 19.1.0, SVG Export Plug-In . SVG Version: 6.00 Build 0)  -->
<!DOCTYPE svg PUBLIC "-//W3C//DTD SVG 1.1//EN" "http://www.w3.org/Graphics/SVG/1.1/DTD/svg11.dtd">
<svg xmlns="http://www.w3.org/2000/svg" xmlns:xlink="http://www.w3.org/1999/xlink" xmlns:dc="http://purl.org/dc/elements/1.1/" xmlns:cc="http://creativecommons.org/ns#" xmlns:rdf="http://www.w3.org/1999/02/22-rdf-syntax-ns#" version="1.1" id="DESIGNS" x="0px" y="0px" width="64px" height="64px" viewBox="0 0 64 64" style="enable-background:new 0 0 64 64;" xml:space="preserve">
<title property="dc:title">to choose</title><desc property="dc:description">An icon for "choose" from the Fandom series on to [icon]. Downloaded from http://www.toicon.com/icons/fandom_choose by 187.123.37.70 on 2016-12-28. Licensed CC-BY, see http://toicon.com/license/ for details.</desc>
<g>
	<g>
		<path class="fandom_zes" d="M32,7C18.193,7,7,18.193,7,32h50C57,18.193,45.807,7,32,7z" style="fill: #00B3AA;"/>
		<path class="fandom_vijf" d="M32,57c13.807,0,25-11.193,25-25H7C7,45.807,18.193,57,32,57z" style="fill: #018273;"/>
	</g>
	<g>
		<path class="fandom_elf" d="M45.839,44.13l1.853-13.962c-1.317,0.208-2.208,1.067-2.535,2.744l-2.107,15.711    c-0.918-0.188-1.716-0.936-1.59-2.146l2.097-15.692c-1.275,0-2.119,0.965-2.386,2.545l-1.592,11.826c0,0-1.478,0.374-1.625-1.83    l1.786-13.387c0,0-1.786-0.112-2.055,1.566l-1.13,7.706c-0.52-0.157-1-0.5-1.265-0.979c-0.762-1.375,0.633-10.401,0.633-10.401    c0.153-2.541-0.259-5.078,0.39-7.579c0.922-3.553,2.822-4.619,3.327-5.802c0.238-0.558,0.205-0.826,0.705-4.919    c0.112-0.88,0.938-1.469,1.927-1.531H47c0,0,0,7.087,0,7.088c0,0.328,0.031,0.612,0.266,0.862c0.938,1,3.922,3.082,3.922,5.912    c0.142,1.377-0.157,3.782-0.899,4.856c-0.513,1.23-2.73,18.514-2.73,18.514S46.283,44.969,45.839,44.13z M54.77,35.025    c-0.038-0.031-2.27-1.15-2.458-4.072c0-2.375,0.435-3.906,0.435-3.906L51.469,28c0,0-0.225,1.849-0.52,4.268    C51.222,35.594,54.77,35.025,54.77,35.025z M25.263,38.312c0.334,0.873,1.281,1.188,2.073,0.915l-1.132-7.722    c-0.269-1.677-2.055-1.566-2.055-1.566L25.263,38.312z M24.31,45.156l-1.592-11.826c-0.268-1.581-1.111-2.545-2.386-2.545    l1.76,13.145C22.424,44.76,23.342,45.328,24.31,45.156z M18.42,46.922c0.211,1.391,1.379,1.922,2.422,1.719l-2.11-15.729    c-0.328-1.677-1.218-2.537-2.535-2.744L18.42,46.922z M8.667,33.197c-0.286,1.71,0.452,1.828,0.452,1.828    c0.038-0.031,2.27-1.15,2.457-4.072c0-2.375-0.435-3.906-0.435-3.906L12.42,28c0,0.001,1.89,15.51,1.89,15.511    c0.25,1.989,2.02,1.721,2.02,1.721s-2.217-17.284-2.73-18.514c-0.742-1.074-1.04-3.479-0.899-4.856    c0-2.831,2.984-4.912,3.922-5.912c0.235-0.25,0.266-0.534,0.266-0.862c0,0,0-7.088,0-7.088h-4.89    c-0.875,0.117-1.509,0.875-1.391,1.75l0.602,6.426c-0.373,1.739-2.372,3.601-2.736,5.687c-0.33,1.895,0.314,3.163,0.491,7.09    C9.101,31.955,8.953,31.484,8.667,33.197z" style="fill: #4B322A;"/>
		<path class="fandom_twaalf" d="M28.599,38.232c-0.266,0.48-0.745,0.822-1.265,0.979l-1.13-7.706    c-0.269-1.677-2.055-1.566-2.055-1.566l1.786,13.387c-0.146,2.193-1.625,1.83-1.625,1.83l-1.592-11.826    c-0.267-1.581-1.111-2.545-2.386-2.545l2.097,15.692c0.126,1.21-0.672,1.958-1.589,2.146l-2.107-15.711    c-0.328-1.677-1.218-2.537-2.535-2.744l1.853,13.962c-0.443,0.84-1.422,1.246-2.272,1.085c0.313,0.052,0.553,0.018,0.553,0.018    s-2.217-17.284-2.73-18.514c-0.742-1.074-1.04-3.479-0.899-4.856c0-2.831,2.984-4.912,3.922-5.912    c0.235-0.25,0.266-0.534,0.266-0.862c0,0,0-7.088,0-7.088h4.729c0.99,0.062,1.815,0.652,1.927,1.531    c0.5,4.093,0.467,4.361,0.705,4.919c0.504,1.184,2.405,2.249,3.327,5.802c0.649,2.501,0.237,5.038,0.39,7.579    C27.967,27.832,29.361,36.857,28.599,38.232z M12.42,28l-1.278-0.953c0,0,0.435,1.531,0.435,3.906    c-0.188,2.922-2.42,4.04-2.458,4.072c0,0,3.548,0.506,3.822-2.756C12.645,29.849,12.42,28,12.42,28z M41.796,43.93l1.76-13.145    c-1.275,0-2.119,0.965-2.386,2.545l-1.592,11.826C40.547,45.328,41.465,44.76,41.796,43.93z M47.692,30.167    c-1.317,0.208-2.208,1.067-2.535,2.744l-2.11,15.729c1.043,0.203,2.211-0.328,2.422-1.719L47.692,30.167z M39.739,29.94    c0,0-1.786-0.112-2.055,1.566l-1.132,7.722c0.792,0.272,1.74-0.042,2.073-0.915L39.739,29.94z M54.923,28.953    c0.178-3.927,0.822-5.195,0.491-7.09c-0.364-2.086-2.363-3.948-2.736-5.687l0.602-6.426C53.399,8.875,52.765,8.117,51.89,8H47    c0,0,0,7.087,0,7.088c0,0.328,0.031,0.612,0.266,0.862c0.938,1,3.922,3.082,3.922,5.912c0.142,1.377-0.157,3.782-0.899,4.856    c-0.513,1.23-2.73,18.514-2.73,18.514s1.77,0.268,2.02-1.721c0,0,1.89-15.509,1.89-15.511l1.278-0.953    c0,0-0.435,1.531-0.435,3.906c0.188,2.922,2.42,4.04,2.457,4.072c0,0,0.737-0.119,0.452-1.828    C54.935,31.484,54.788,31.955,54.923,28.953z" style="fill: #644638;"/>
		<path class="fandom_een" d="M19.082,25.806l2.676-1.357c0.613-0.311,0.86-1.067,0.55-1.68l-0.113-0.223    c-0.311-0.613-1.067-0.86-1.68-0.55l-2.676,1.357c-0.613,0.311-0.86,1.067-0.55,1.68l0.113,0.223    C17.713,25.869,18.469,26.117,19.082,25.806z" style="fill: #FF786E;"/>
		<path class="fandom_twee" d="M20.852,24.09c0.613-0.311,0.86-1.067,0.549-1.68c-0.113-0.223-0.176-0.376-0.351-0.547    c0.466-0.009,0.92,0.242,1.144,0.684l0.113,0.223c0.311,0.613,0.064,1.369-0.549,1.68l-2.676,1.357    c-0.49,0.248-1.07,0.14-1.443-0.225C18.108,25.571,20.393,24.322,20.852,24.09z" style="fill: #BE5652;"/>
		<path class="fandom_acht" d="M44.806,25.806l-2.676-1.357c-0.613-0.311-0.86-1.067-0.55-1.68l0.113-0.223    c0.311-0.613,1.067-0.86,1.68-0.55l2.676,1.357c0.613,0.311,0.86,1.067,0.55,1.68l-0.113,0.223    C46.175,25.869,45.419,26.117,44.806,25.806z" style="fill: #6BC4D2;"/>
		<path class="fandom_zeven" d="M43.037,24.09c-0.613-0.311-0.86-1.067-0.549-1.68c0.113-0.223,0.176-0.376,0.351-0.547    c-0.466-0.009-0.92,0.242-1.144,0.684l-0.113,0.223c-0.311,0.613-0.064,1.369,0.549,1.68l2.676,1.357    c0.49,0.248,1.07,0.14,1.443-0.225C45.781,25.571,43.496,24.322,43.037,24.09z" style="fill: #508D9B;"/>
	</g>
</g>
<metadata><work rdf:about=""><format>image/svg+xml</format><type rdf:resource="http://purl.org/dc/dcmitype/StillImage"/><license rdf:resource="http://creativecommons.org/licenses/by/4.0/"/><attributionname>Carol Liao</attributionname><attributionurl>http://www.toicon.com/icons/fandom_choose</attributionurl></work></metadata></svg>
