<?xml version="1.0" encoding="UTF-8"?>
<!-- Generator: Adobe Illustrator 19.1.0, SVG Export Plug-In . SVG Version: 6.00 Build 0)  -->
<!DOCTYPE svg PUBLIC "-//W3C//DTD SVG 1.1//EN" "http://www.w3.org/Graphics/SVG/1.1/DTD/svg11.dtd">
<svg xmlns="http://www.w3.org/2000/svg" xmlns:xlink="http://www.w3.org/1999/xlink" xmlns:dc="http://purl.org/dc/elements/1.1/" xmlns:cc="http://creativecommons.org/ns#" xmlns:rdf="http://www.w3.org/1999/02/22-rdf-syntax-ns#" version="1.1" id="DESIGNS" x="0px" y="0px" width="64px" height="64px" viewBox="0 0 64 64" style="enable-background:new 0 0 64 64;" xml:space="preserve">
<title property="dc:title">to strike</title><desc property="dc:description">An icon for "strike" from the Fandom series on to [icon]. Downloaded from http://www.toicon.com/icons/fandom_strike by 187.123.37.70 on 2016-12-28. Licensed CC-BY, see http://toicon.com/license/ for details.</desc>
<g>
	<g>
		<path class="fandom_zes" d="M32,7C18.193,7,7,18.193,7,32h50C57,18.193,45.807,7,32,7z" style="fill: #00B3AA;"/>
		<path class="fandom_vijf" d="M32,57c13.807,0,25-11.193,25-25H7C7,45.807,18.193,57,32,57z" style="fill: #018273;"/>
	</g>
	<g>
		<path class="fandom_dertien" d="M5,26v21c0,0.552,0.448,1,1,1h52c0.552,0,1-0.448,1-1V26H5z M17,39c0,0.552-0.448,1-1,1h-6    c-0.552,0-1-0.448-1-1v-8c0-0.552,0.448-1,1-1h6c0.552,0,1,0.448,1,1V39z M55,39c0,0.552-0.448,1-1,1h-6c-0.552,0-1-0.448-1-1v-8    c0-0.552,0.448-1,1-1h6c0.552,0,1,0.448,1,1V39z M30.8,11.9c0.711-0.533,1.689-0.533,2.4,0L48,23H16L30.8,11.9z" style="fill: #AA9991;"/>
		<circle class="fandom_twintig" cx="32" cy="18" r="4" style="fill: #FFFAFA;"/>
		<path class="fandom_veertien" d="M12.667,23L29.6,10.3c0.698-0.523,1.528-0.8,2.4-0.8s1.702,0.277,2.4,0.8L51.333,23H48L33.2,11.9    c-0.356-0.267-0.778-0.4-1.2-0.4s-0.844,0.133-1.2,0.4L16,23H12.667z M25,26h-2v17h2V26z M31,26h-2v17h2V26z M37,26h-2v17h2V26z     M43,26h-2v17h2V26z" style="fill: #EFEAE0;"/>
		<path class="fandom_zestien" d="M31.5,6.707V5.851c0,0-1.209,0.649-1.292,0.649c-0.175,0-0.345-0.092-0.437-0.256    c-0.135-0.241-0.048-0.546,0.193-0.68L31.5,4.707V3.5C31.5,3.224,31.724,3,32,3s0.5,0.224,0.5,0.5v0.649l1.049-0.585    c0.236-0.134,0.544-0.049,0.68,0.193c0.135,0.241,0.048,0.546-0.193,0.68L32.5,5.293v0.856l1.049-0.585    c0.236-0.134,0.544-0.049,0.68,0.193c0.135,0.241,0.048,0.546-0.193,0.68L32.5,7.293V9.54C32.335,9.519,32.169,9.5,32,9.5    s-0.335,0.019-0.5,0.04V7.851c0,0-1.209,0.649-1.292,0.649c-0.175,0-0.345-0.092-0.437-0.256c-0.135-0.241-0.048-0.546,0.193-0.68    L31.5,6.707z M33.224,15.553c-0.246-0.122-0.547-0.024-0.671,0.224l-0.69,1.38l-0.509-0.509c-0.195-0.195-0.512-0.195-0.707,0    s-0.195,0.512,0,0.707l1,1c0.218,0.217,0.63,0.188,0.801-0.13l1-2C33.57,15.977,33.471,15.676,33.224,15.553z M45.503,44.257    C45.199,43.498,44.464,43,43.646,43H20.354c-0.818,0-1.553,0.498-1.857,1.257L17,48h30L45.503,44.257z M60.064,25.555l0.667-1    C61.174,23.89,60.698,23,59.899,23H4.101c-0.799,0-1.275,0.89-0.832,1.555l0.667,1C4.121,25.833,4.433,26,4.768,26h54.465    C59.567,26,59.879,25.833,60.064,25.555z" style="fill: #4D4D4D;"/>
		<path class="fandom_achttien" d="M23,43h-2V26h2V43z M29,26h-2v17h2V26z M35,26h-2v17h2V26z M41,26h-2v17h2V26z M55,39v-8    c0-0.552-0.448-1-1-1h-6c-0.552,0-1,0.448-1,1v8c0,0.552,0.448,1,1,1h6C54.552,40,55,39.552,55,39z M17,39v-8c0-0.552-0.448-1-1-1    h-6c-0.552,0-1,0.448-1,1v8c0,0.552,0.448,1,1,1h6C16.552,40,17,39.552,17,39z" style="fill: #808080;"/>
	</g>
</g>
<metadata><work rdf:about=""><format>image/svg+xml</format><type rdf:resource="http://purl.org/dc/dcmitype/StillImage"/><license rdf:resource="http://creativecommons.org/licenses/by/4.0/"/><attributionname>Carol Liao</attributionname><attributionurl>http://www.toicon.com/icons/fandom_strike</attributionurl></work></metadata></svg>
