<?xml version="1.0" encoding="UTF-8"?>
<!-- Generator: Adobe Illustrator 19.1.0, SVG Export Plug-In . SVG Version: 6.00 Build 0)  -->
<!DOCTYPE svg PUBLIC "-//W3C//DTD SVG 1.1//EN" "http://www.w3.org/Graphics/SVG/1.1/DTD/svg11.dtd">
<svg xmlns="http://www.w3.org/2000/svg" xmlns:xlink="http://www.w3.org/1999/xlink" xmlns:dc="http://purl.org/dc/elements/1.1/" xmlns:cc="http://creativecommons.org/ns#" xmlns:rdf="http://www.w3.org/1999/02/22-rdf-syntax-ns#" version="1.1" id="DESIGNS" x="0px" y="0px" width="64px" height="64px" viewBox="0 0 64 64" style="enable-background:new 0 0 64 64;" xml:space="preserve">
<title property="dc:title">to pack</title><desc property="dc:description">An icon for "pack" from the Fandom series on to [icon]. Downloaded from http://www.toicon.com/icons/fandom_pack by 187.123.37.70 on 2016-12-28. Licensed CC-BY, see http://toicon.com/license/ for details.</desc>
<g>
	<g>
		<path class="fandom_vier" d="M32,7C18.193,7,7,18.193,7,32h50C57,18.193,45.807,7,32,7z" style="fill: #FFC865;"/>
		<path class="fandom_drie" d="M32,57c13.807,0,25-11.193,25-25H7C7,45.807,18.193,57,32,57z" style="fill: #BE9148;"/>
	</g>
	<g>
		<path class="fandom_zestien" d="M32.151,2.599c-1.857-0.217-2.933,0.885-1.353,4.318c0.631,1.47,1.216,2.496,1.426,2.851    c-0.387,0.098-2.353,0.59-3.048,0.74c-0.026-0.516-0.104-1.611-0.331-3.026c-0.145-1.09-1.608-6.52,3.397-6.144    c2.239,0.216,4.686,1.767,5.512,2.97c0.295,0.392,0.44,1.448,0.542,1.934c0.454,2.146,0.565,2.697,0.8,3.723    c-1.033-0.214-2.149-0.381-3.324-0.424c0.183-0.873,0.339-2.037,0.398-3.143C36.257,3.712,33.151,2.7,32.151,2.599z     M16.967,36.806l-1.364-8.24c-0.025-2.933-0.099-5.343-0.251-6.539c-0.116,0.473-0.525,0.822-1.021,0.832l-0.717,0.014    c-0.415,0.008-0.785-0.228-0.973-0.59c0.32,2.019,1.237,9.664,0.534,17.557c-0.448,5.029-0.622,7.467-0.688,8.642    c-0.033,0.597,0.419,1.106,1.016,1.143l0.717,0.045c0.615,0.038,1.138-0.437,1.152-1.053c0.041-1.756,0.121-5.376,0.177-9.423    l1.154,2.828C16.785,40.372,16.874,38.611,16.967,36.806z" style="fill: #4D4D4D;"/>
		<path class="fandom_veertien" d="M52.835,34.239C53.33,20.581,47.494,8.78,33.608,9.552    c-12.377,0.688-13.265,26.607-13.265,26.607c-0.332,7.164-0.569,15.119-0.569,16.973c0,3.436,0.995,6.781,2.893,7.323    s27.395-3.436,28.571-4.249c2.844-1.969,0.768-8.896,1.085-10.217C52.873,43.701,52.684,38.407,52.835,34.239z" style="fill: #EFEAE0;"/>
		<path class="fandom_zes" d="M34.628,9.517l1.452-2.022c-0.071,0.676-0.167,1.369-0.306,2.034    C35.399,9.516,35.017,9.511,34.628,9.517z M43.125,4.125c0,0-1.346-0.68-2.594-0.854c-0.796-0.111-1.584,0.233-2.053,0.885    l-0.495,0.689c0.15,0.483,0.751,3.647,1.113,5.12c0.415,0.086,0.777,0.198,1.17,0.309C40.92,8.436,43.125,4.125,43.125,4.125z     M15.299,9.1l0.713,8.239c0.018,0.205-0.598,4.385-0.627,4.59c-0.075,0.527-0.522,0.921-1.054,0.931l-0.717,0.014    c-0.454,0.009-0.866-0.267-1.031-0.69c-0.104-0.265-1.573-3.952-1.595-4.205c-0.049-0.566-0.16-2.616,0.333-6.257    c0.476-3.518,2.408-4.926,3.122-5.334c0.201,0.003,1.072,0.023,2.271,0.154C15.701,7.459,15.299,9.1,15.299,9.1z M52.835,34.239    c-12.237,6.735-27.969,3.682-32.487,1.823c-0.334,7.188-0.573,15.207-0.573,17.069c0,3.436,0.995,6.781,2.893,7.323    s27.395-3.436,28.571-4.249c2.844-1.969,0.768-8.896,1.085-10.217C52.873,43.701,52.684,38.375,52.835,34.239z" style="fill: #00B3AA;"/>
		<path class="fandom_dertien" d="M26.353,11.263c0,0-5.436,2.529-7.936,13.112c-0.675,2.857-1.152,6.779-1.32,9.956    c1.228,1.099,3.232,1.726,3.251,1.731c0.069-1.602,1.162-22.726,11.011-26.077C27.307,10.99,27.62,10.73,26.353,11.263z" style="fill: #AA9991;"/>
		<path class="fandom_vijf" d="M40.266,10.274c0.614-1.728,2.635-5.71,2.859-6.148c0.453,0.342,1.061,1.282,0.791,3.889    c-0.14,1.35-0.317,2.69-0.447,3.65C42.48,11.084,41.455,10.625,40.266,10.274z M26.353,11.263    c0.862-0.363,0.928-0.348,2.823-0.755c-0.024-0.476-0.098-1.459-0.287-2.719l-5.217-3.197c-0.809-0.496-1.795-0.614-2.699-0.323    l-6.578,2.118C14.395,6.387,24.27,6.432,26.353,11.263z M39,25c-2.209,0-4,1.791-4,4s1.791,4,4,4s4-1.791,4-4S41.209,25,39,25z     M16.208,52.542c0,0-0.081,4.455,2.75,6.458c2.385,1.688,4.417,1.505,4.417,1.505c-0.336,0.003-0.577-0.013-0.707-0.051    c-1.899-0.542-2.893-3.888-2.893-7.323c0-1.853,0.237-9.809,0.569-16.973c0-0.007,0.001-0.041,0.004-0.096    c-0.019-0.006-2.023-0.633-3.251-1.731C16.603,43.635,16.208,52.542,16.208,52.542z M51.659,40.616    c1.267-0.675,0.245-2.591-1.021-1.914c-10.334,5.509-26.614,1.131-26.777,1.087c-1.386-0.382-1.959,1.711-0.576,2.092    C31.416,44.134,43.765,44.827,51.659,40.616z" style="fill: #018273;"/>
	</g>
</g>
<metadata><work rdf:about=""><format>image/svg+xml</format><type rdf:resource="http://purl.org/dc/dcmitype/StillImage"/><license rdf:resource="http://creativecommons.org/licenses/by/4.0/"/><attributionname>Carol Liao</attributionname><attributionurl>http://www.toicon.com/icons/fandom_pack</attributionurl></work></metadata></svg>
