<?xml version="1.0" encoding="UTF-8"?>
<!-- Generator: Adobe Illustrator 19.1.0, SVG Export Plug-In . SVG Version: 6.00 Build 0)  -->
<!DOCTYPE svg PUBLIC "-//W3C//DTD SVG 1.1//EN" "http://www.w3.org/Graphics/SVG/1.1/DTD/svg11.dtd">
<svg xmlns="http://www.w3.org/2000/svg" xmlns:xlink="http://www.w3.org/1999/xlink" xmlns:dc="http://purl.org/dc/elements/1.1/" xmlns:cc="http://creativecommons.org/ns#" xmlns:rdf="http://www.w3.org/1999/02/22-rdf-syntax-ns#" version="1.1" id="DESIGNS" x="0px" y="0px" width="64px" height="64px" viewBox="0 0 64 64" style="enable-background:new 0 0 64 64;" xml:space="preserve">
<title property="dc:title">to rise</title><desc property="dc:description">An icon for "rise" from the Fandom series on to [icon]. Downloaded from http://www.toicon.com/icons/fandom_rise by 187.123.37.70 on 2016-12-28. Licensed CC-BY, see http://toicon.com/license/ for details.</desc>
<g>
	<g>
		<path class="fandom_vier" d="M32,7C18.193,7,7,18.193,7,32h50C57,18.193,45.807,7,32,7z" style="fill: #FFC865;"/>
		<path class="fandom_drie" d="M32,57c13.807,0,25-11.193,25-25H7C7,45.807,18.193,57,32,57z" style="fill: #BE9148;"/>
	</g>
	<g>
		<path class="fandom_twaalf" d="M26.127,42.482c-4.082,2.409-10.327,5.011-12.505,6.461C18.19,53.895,24.731,57,32,57    c0.927,0,1.841-0.054,2.742-0.153c1.697-3.51,3.504-10.835,3.555-11.848C37.296,44.633,26.127,42.482,26.127,42.482z" style="fill: #644638;"/>
		<path class="fandom_veertien" d="M45.345,18.831c-0.099-1.054-0.301-2.129-1.052-2.93c-1.225-1.307-1.401,0.455-1.432,1.492    c-0.015,0.493-0.482,3.289,0.413,3.246C44.419,20.582,45.461,20.071,45.345,18.831z" style="fill: #EFEAE0;"/>
		<path class="fandom_vijf" d="M40.078,2.501c-0.771,0.538-0.656,2.055-0.284,2.759c0.893,1.693,2.207,2.74,1.971,4.724    c-0.215,1.811-1.571,6.266-2.763,4.886c-1,0.509-2.441,0.388-2.967-1.338c-0.466-2.143,0.22-5.436-1.102-7.234    c-1.886-2.565-3.892-3.751-4.893-4.739c-0.231,0.269-0.328,0.684-0.171,1.252c0.185,0.67,2.939,3.232,3.435,3.723    c0.69,0.683,1.197,1.048,1.216,2.102c0.018,0.982-0.056,4.767-0.487,5.727c-0.238,0.996-1.186,3.127-2.37,1.822    c-0.738-0.814-1.078-1.865-1.499-2.857c-0.492-1.161-1.41-2.653-2.434-3.388c-0.227,0.387-0.649,0.662-1.208,0.546L18.9,7.933    c0,0-0.586,1.161,2.121,2.544c1.469,0.751,3.058,1.242,4.522,1.978c1.16,0.582,1.937,2.54,2.226,3.739    c0.45,1.869-1.127,1.65-2.144,1.212c-1.008-0.271-2.724-1.448-3.988-1.777c-0.101,0.343-0.343,0.646-0.717,0.787l-8.095,0.453    c0,0-0.376,0.943,2.345,1.366c1.775,0.276,3.833-0.72,5.425,0.41c4.582,2.207,1.311,6.743,2.749,11.64    c0.458,1.56,1.297,2.963,1.981,4.427c0,0,0.814,0.631,0.814,9.51c2.996,1.254,1.041,2.139,4.573,2.607    c-0.043-0.014-1.288-15.063-1.247-15.054c-0.31-3.502,6.148-9.086,11.545-8.422c-0.475-3.956,0.025-5.747,0.774-6.492    C44.905,8.804,44.673,10.94,40.078,2.501z" style="fill: #018273;"/>
		<path class="fandom_zes" d="M31.977,1.593c1.5,1.076,2.956,2.213,4.456,3.288c0.926,0.664,1.059,1.326,1.317,2.357    c0.633,2.532,1.072,7.423,1.253,7.632c-1,0.509-2.441,0.388-2.967-1.338c-0.466-2.143,0.22-5.436-1.102-7.234    c-1.936-2.633-3.924-3.747-4.902-4.748C30.427,1.081,31.246,1.069,31.977,1.593z M20.92,16.417    c0.374-0.142,0.616-0.444,0.717-0.787c-0.609-0.159-1.24-0.223-1.87-0.234c-0.869-0.015-4.979,0.203-5.813,0.448    c-0.421,0.124-1.055,0.535-1.129,1.027L20.92,16.417z M18.878,7.92l7.646,2.566c0.559,0.116,0.981-0.159,1.208-0.546    c0.202,0.145-1.306-0.677-2.491-1.01c-1.293-0.364-2.597-0.693-3.873-1.115C19.375,7.156,18.878,7.92,18.878,7.92z M37.642,33.11    c-0.437,1.017,0.718,11.905,0.718,11.905c-1.161-0.577-5.672,1.802-7.68,1.802c-0.003-0.035-1.214-15.042-1.214-15.042    c-0.311-3.502,6.148-9.086,11.545-8.422c-0.475-3.955,0.024-5.746,0.773-6.49c3.121-8.059,2.892-5.921-1.704-14.364    c0.125-0.156,0.375-0.234,0.8-0.202c1.01,0,4.196,5.822,4.196,5.822c0.54,0.886,0.323,1.372,0.145,2.286l-1.164,5.27    c-0.692-0.574-0.982-0.009-1.105,0.715h-0.001h0.001c-0.057,0.333-0.079,0.698-0.088,1.002c-0.015,0.493-0.482,3.289,0.412,3.246    c0.97-0.048,1.859-0.428,2.04-1.295l1.265,3.516C47.166,26.027,41.911,30.82,37.642,33.11z" style="fill: #00B3AA;"/>
	</g>
</g>
<metadata><work rdf:about=""><format>image/svg+xml</format><type rdf:resource="http://purl.org/dc/dcmitype/StillImage"/><license rdf:resource="http://creativecommons.org/licenses/by/4.0/"/><attributionname>Carol Liao</attributionname><attributionurl>http://www.toicon.com/icons/fandom_rise</attributionurl></work></metadata></svg>
